<svg width="1200" height="720" viewBox="0 0 1200 720" fill="none" xmlns="http://www.w3.org/2000/svg"><rect width="1200" height="720" rx="28" fill="#0D1119"/><rect x="40" y="40" width="1120" height="640" rx="24" fill="#121826" stroke="rgba(255,255,255,0.08)"/><rect x="74" y="84" width="180" height="18" rx="9" fill="#F4F7FF"/><rect x="74" y="136" width="1052" height="118" rx="22" fill="#171E2D"/><rect x="106" y="176" width="214" height="14" rx="7" fill="#F4F7FF"/><rect x="106" y="206" width="310" height="10" rx="5" fill="#8390A8"/><circle cx="1078" cy="194" r="14" fill="#89F1C0"/><rect x="74" y="284" width="1052" height="118" rx="22" fill="#171E2D"/><rect x="106" y="324" width="198" height="14" rx="7" fill="#F4F7FF"/><rect x="106" y="354" width="346" height="10" rx="5" fill="#8390A8"/><circle cx="1078" cy="342" r="14" fill="#89E0FF"/><rect x="74" y="432" width="1052" height="118" rx="22" fill="#171E2D"/><rect x="106" y="472" width="236" height="14" rx="7" fill="#F4F7FF"/><rect x="106" y="502" width="286" height="10" rx="5" fill="#8390A8"/><circle cx="1078" cy="490" r="14" fill="#FF9AB2"/><text x="74" y="628" font-size="34" font-family="Arial, sans-serif" fill="#B8C1D4">结果日志 / 候选命中 / 抢注状态 / 失败回看</text></svg>