<svg width="1200" height="720" viewBox="0 0 1200 720" fill="none" xmlns="http://www.w3.org/2000/svg"><rect width="1200" height="720" rx="28" fill="#0D1119"/><rect x="40" y="40" width="1120" height="640" rx="24" fill="#121826" stroke="rgba(255,255,255,0.08)"/><rect x="74" y="82" width="180" height="18" rx="9" fill="#F4F7FF"/><rect x="74" y="132" width="490" height="180" rx="24" fill="#121F1B" stroke="#89F1C0" stroke-opacity="0.36"/><rect x="104" y="172" width="160" height="14" rx="7" fill="#EFFFF8"/><rect x="104" y="204" width="254" height="58" rx="18" fill="#1C3B2D"/><text x="144" y="241" font-size="28" font-family="Arial, sans-serif" fill="#98F4C9" font-weight="700">开始监听</text><rect x="392" y="204" width="130" height="58" rx="18" fill="#3B1D27"/><text x="424" y="241" font-size="28" font-family="Arial, sans-serif" fill="#FFB7C7" font-weight="700">停止</text><rect x="608" y="132" width="520" height="180" rx="24" fill="#171E2D"/><rect x="640" y="168" width="136" height="14" rx="7" fill="#F4F7FF"/><rect x="640" y="204" width="176" height="72" rx="18" fill="#122033"/><text x="688" y="250" font-size="36" font-family="Arial, sans-serif" fill="#89E0FF" font-weight="700">128</text><rect x="838" y="204" width="176" height="72" rx="18" fill="#261C38"/><text x="900" y="250" font-size="36" font-family="Arial, sans-serif" fill="#C9B7FF" font-weight="700">18</text><rect x="74" y="356" width="1054" height="250" rx="24" fill="#171E2D"/><rect x="106" y="392" width="164" height="14" rx="7" fill="#F4F7FF"/><rect x="106" y="438" width="990" height="60" rx="18" fill="#20283A"/><rect x="136" y="462" width="182" height="12" rx="6" fill="#F4F7FF"/><rect x="106" y="520" width="990" height="60" rx="18" fill="#20283A"/><rect x="136" y="544" width="214" height="12" rx="6" fill="#F4F7FF"/><text x="74" y="650" font-size="34" font-family="Arial, sans-serif" fill="#B8C1D4">运行区 / 实时监听 / 统计卡片</text></svg>