<svg width="1200" height="720" viewBox="0 0 1200 720" fill="none" xmlns="http://www.w3.org/2000/svg"><rect width="1200" height="720" rx="28" fill="#0D1119"/><rect x="40" y="40" width="1120" height="640" rx="24" fill="#121826" stroke="rgba(255,255,255,0.08)"/><rect x="72" y="72" width="220" height="20" rx="10" fill="#8B7BFF"/><rect x="72" y="120" width="180" height="14" rx="7" fill="#F4F7FF"/><rect x="72" y="164" width="1056" height="150" rx="20" fill="#0F1724" stroke="#8B7BFF" stroke-opacity="0.36"/><rect x="104" y="198" width="182" height="14" rx="7" fill="#F4F7FF"/><rect x="104" y="226" width="502" height="10" rx="5" fill="#8B97AE"/><rect x="104" y="248" width="580" height="10" rx="5" fill="#6E7A91"/><rect x="72" y="346" width="512" height="120" rx="20" fill="#171E2D"/><rect x="104" y="382" width="126" height="14" rx="7" fill="#F4F7FF"/><rect x="104" y="410" width="322" height="10" rx="5" fill="#8290A9"/><rect x="616" y="346" width="512" height="120" rx="20" fill="#171E2D"/><rect x="648" y="382" width="126" height="14" rx="7" fill="#F4F7FF"/><rect x="648" y="410" width="352" height="10" rx="5" fill="#8290A9"/><rect x="72" y="500" width="310" height="96" rx="18" fill="#89E0FF" fill-opacity="0.14" stroke="#89E0FF" stroke-opacity="0.35"/><rect x="104" y="538" width="154" height="14" rx="7" fill="#F4F7FF"/><text x="74" y="650" font-size="34" font-family="Arial, sans-serif" fill="#B8C1D4">基础参数 / 来源 / 备用池 / 自动处理</text></svg>